<svg xmlns="http://www.w3.org/2000/svg" viewBox="0 0 1200 600" width="1200" height="600">
  <defs>
    <linearGradient id="titleAccent" x1="0" y1="0" x2="1" y2="0">
      <stop offset="0%" stop-color="#0EA5E9"/>
      <stop offset="100%" stop-color="#10B981"/>
    </linearGradient>
  </defs>
  <rect width="1200" height="600" fill="#0F172A"/>
  <text x="600" y="60" text-anchor="middle" font-family="system-ui, -apple-system, sans-serif" font-size="32" font-weight="700" fill="#FFFFFF" letter-spacing="1">Everything You Need</text>
  <rect x="520" y="72" width="160" height="3" rx="1.5" fill="url(#titleAccent)"/>
  <g transform="translate(80, 110)">
    <rect x="0" y="0" width="330" height="200" rx="14" fill="#1E293B" stroke="#334155" stroke-width="1"/>
    <g transform="translate(165, 70)" fill="none" stroke="#0EA5E9" stroke-width="2.5" stroke-linecap="round">
      <path d="M-10,-22 C-10,-27 -6,-30 -2,-30 C2,-30 5,-27 5,-22 L5,-10 C5,-10 7,-11 10,-11 C13,-11 15,-8 15,-5 L15,-3 C15,-3 17,-5 20,-5 C23,-5 25,-2 25,2 L25,8 C25,8 27,6 30,6 C33,6 35,9 35,13 L35,22 C35,30 28,35 20,35 L5,35 C-2,35 -6,30 -8,24 L-13,14 C-14,11 -13,8 -10,7 C-7,6 -5,7 -3,10 L-10,14 L-10,-22Z"/>
      <g opacity="0.5">
        <path d="M-25,-3 C-30,-3 -31,-9 -27,-12"/>
        <path d="M-28,4 C-34,4 -35,-4 -31,-8"/>
      </g>
    </g>
    <text x="165" y="130" text-anchor="middle" font-family="system-ui, -apple-system, sans-serif" font-size="18" font-weight="700" fill="#FFFFFF">13+ Gestures</text>
    <text x="165" y="155" text-anchor="middle" font-family="system-ui, -apple-system, sans-serif" font-size="13" fill="#94A3B8">Swipe, pinch, fist, point,</text>
    <text x="165" y="173" text-anchor="middle" font-family="system-ui, -apple-system, sans-serif" font-size="13" fill="#94A3B8">open palm, thumbs up &amp; more</text>
  </g>
  <g transform="translate(440, 110)">
    <rect x="0" y="0" width="330" height="200" rx="14" fill="#1E293B" stroke="#334155" stroke-width="1"/>
    <g transform="translate(165, 70)" fill="none" stroke="#10B981" stroke-width="2.5" stroke-linecap="round">
      <rect x="-14" y="-14" width="28" height="28" rx="4"/>
      <circle cx="-4" cy="-4" r="3" fill="#10B981" opacity="0.4"/>
      <circle cx="6" cy="-4" r="3" fill="#10B981" opacity="0.4"/>
      <circle cx="-4" cy="6" r="3" fill="#10B981" opacity="0.4"/>
      <circle cx="6" cy="6" r="3" fill="#10B981" opacity="0.4"/>
      <line x1="-14" y1="0" x2="14" y2="0" stroke-width="1.5" opacity="0.4"/>
      <line x1="0" y1="-14" x2="0" y2="14" stroke-width="1.5" opacity="0.4"/>
    </g>
    <text x="165" y="130" text-anchor="middle" font-family="system-ui, -apple-system, sans-serif" font-size="18" font-weight="700" fill="#FFFFFF">Custom Mapping</text>
    <text x="165" y="155" text-anchor="middle" font-family="system-ui, -apple-system, sans-serif" font-size="13" fill="#94A3B8">Assign any gesture to any</text>
    <text x="165" y="173" text-anchor="middle" font-family="system-ui, -apple-system, sans-serif" font-size="13" fill="#94A3B8">browser action or shortcut</text>
  </g>
  <g transform="translate(800, 110)">
    <rect x="0" y="0" width="330" height="200" rx="14" fill="#1E293B" stroke="#334155" stroke-width="1"/>
    <g transform="translate(165, 70)" fill="none" stroke="#F97316" stroke-width="2.5" stroke-linecap="round">
      <circle cx="0" cy="-8" r="10"/>
      <path d="M-16,12 C-16,2 -9,-4 0,-4 C9,-4 16,2 16,12"/>
      <circle cx="0" cy="-8" r="4" fill="#F97316" opacity="0.3"/>
    </g>
    <text x="165" y="130" text-anchor="middle" font-family="system-ui, -apple-system, sans-serif" font-size="18" font-weight="700" fill="#FFFFFF">Smart Profiles</text>
    <text x="165" y="155" text-anchor="middle" font-family="system-ui, -apple-system, sans-serif" font-size="13" fill="#94A3B8">Auto-switch gesture sets</text>
    <text x="165" y="173" text-anchor="middle" font-family="system-ui, -apple-system, sans-serif" font-size="13" fill="#94A3B8">based on the current website</text>
  </g>
  <g transform="translate(80, 340)">
    <rect x="0" y="0" width="330" height="200" rx="14" fill="#1E293B" stroke="#334155" stroke-width="1"/>
    <g transform="translate(165, 70)" fill="none" stroke="#0EA5E9" stroke-width="2.5" stroke-linecap="round">
      <rect x="-16" y="-16" width="32" height="32" rx="3"/>
      <line x1="-16" y1="-5" x2="16" y2="-5" stroke-width="1.5" opacity="0.5"/>
      <line x1="-16" y1="6" x2="16" y2="6" stroke-width="1.5" opacity="0.5"/>
      <line x1="-5" y1="-16" x2="-5" y2="16" stroke-width="1.5" opacity="0.5"/>
      <line x1="6" y1="-16" x2="6" y2="16" stroke-width="1.5" opacity="0.5"/>
      <rect x="-12" y="-12" width="7" height="7" rx="1" fill="#0EA5E9" opacity="0.3"/>
      <rect x="2" y="-12" width="12" height="7" rx="1" fill="#0EA5E9" opacity="0.2"/>
      <rect x="-12" y="8" width="26" height="4" rx="1" fill="#0EA5E9" opacity="0.15"/>
    </g>
    <text x="165" y="130" text-anchor="middle" font-family="system-ui, -apple-system, sans-serif" font-size="18" font-weight="700" fill="#FFFFFF">Gesture Zones</text>
    <text x="165" y="155" text-anchor="middle" font-family="system-ui, -apple-system, sans-serif" font-size="13" fill="#94A3B8">Define screen regions that</text>
    <text x="165" y="173" text-anchor="middle" font-family="system-ui, -apple-system, sans-serif" font-size="13" fill="#94A3B8">trigger different actions</text>
  </g>
  <g transform="translate(440, 340)">
    <rect x="0" y="0" width="330" height="200" rx="14" fill="#1E293B" stroke="#334155" stroke-width="1"/>
    <g transform="translate(165, 70)" fill="none" stroke="#10B981" stroke-width="2.5" stroke-linecap="round">
      <polyline points="-16,12 -8,0 0,8 8,-8 16,-4"/>
      <line x1="-16" y1="-14" x2="16" y2="-14"/>
      <circle cx="8" cy="-8" r="2" fill="#10B981"/>
      <circle cx="-8" cy="0" r="2" fill="#10B981" opacity="0.6"/>
      <circle cx="16" cy="-4" r="2" fill="#10B981" opacity="0.4"/>
    </g>
    <text x="165" y="130" text-anchor="middle" font-family="system-ui, -apple-system, sans-serif" font-size="18" font-weight="700" fill="#FFFFFF">Analytics</text>
    <text x="165" y="155" text-anchor="middle" font-family="system-ui, -apple-system, sans-serif" font-size="13" fill="#94A3B8">Track gesture usage, accuracy,</text>
    <text x="165" y="173" text-anchor="middle" font-family="system-ui, -apple-system, sans-serif" font-size="13" fill="#94A3B8">and improve over time</text>
  </g>
  <g transform="translate(800, 340)">
    <rect x="0" y="0" width="330" height="200" rx="14" fill="#1E293B" stroke="#334155" stroke-width="1"/>
    <g transform="translate(165, 70)" fill="none" stroke="#F97316" stroke-width="2.5" stroke-linecap="round" stroke-linejoin="round">
      <path d="M0,-18 L14,-10 L14,4 C14,12 7,18 0,22 C-7,18 -14,12 -14,4 L-14,-10Z"/>
      <path d="M-5,2 L-2,6 L6,-4" stroke-width="2.5"/>
    </g>
    <text x="165" y="130" text-anchor="middle" font-family="system-ui, -apple-system, sans-serif" font-size="18" font-weight="700" fill="#FFFFFF">Privacy First</text>
    <text x="165" y="155" text-anchor="middle" font-family="system-ui, -apple-system, sans-serif" font-size="13" fill="#94A3B8">All processing stays local.</text>
    <text x="165" y="173" text-anchor="middle" font-family="system-ui, -apple-system, sans-serif" font-size="13" fill="#94A3B8">No data leaves your device.</text>
  </g>
  <rect x="0" y="592" width="1200" height="8" fill="url(#titleAccent)" opacity="0.4"/>
</svg>