<svg xmlns="http://www.w3.org/2000/svg" viewBox="0 0 920 680" width="920" height="680">
  <defs>
    <radialGradient id="bgGlow" cx="50%" cy="40%" r="60%">
      <stop offset="0%" stop-color="#1E293B"/>
      <stop offset="100%" stop-color="#0F172A"/>
    </radialGradient>
    <linearGradient id="cardBorder" x1="0" y1="0" x2="1" y2="1">
      <stop offset="0%" stop-color="#334155"/>
      <stop offset="100%" stop-color="#1E293B"/>
    </linearGradient>
  </defs>
  <rect width="920" height="680" fill="url(#bgGlow)"/>
  <g transform="translate(460, 80)">
    <ellipse cx="0" cy="10" rx="40" ry="40" fill="#0EA5E9" opacity="0.08"/>
    <g fill="#0EA5E9">
      <path d="M-6,-32 C-6,-36 -3,-39 0,-39 C3,-39 6,-36 6,-32 L6,-14 C6,-14 7,-15 10,-15 C13,-15 15,-12 15,-9 L15,-7 C15,-7 16,-9 19,-9 C22,-9 24,-6 24,-3 L24,6 C24,6 25,5 28,5 C31,5 33,8 33,11 L33,21 C33,32 25,39 15,39 L3,39 C-4,39 -9,34 -12,28 L-18,16 C-19,13 -18,10 -15,9 C-12,8 -9,9 -7,12 L-6,15 L-6,-32Z"/>
    </g>
    <g fill="none" stroke="#0EA5E9" stroke-width="2" stroke-linecap="round" opacity="0.5">
      <path d="M-30,-4 C-36,-4 -38,-11 -33,-15"/>
      <path d="M-33,4 C-41,4 -43,-7 -38,-13"/>
      <path d="M-31,13 C-43,13 -46,0 -39,-7"/>
    </g>
  </g>
  <text x="460" y="140" text-anchor="middle" font-family="system-ui, -apple-system, sans-serif" font-size="36" font-weight="700" fill="#FFFFFF" letter-spacing="1">GestureFlow</text>
  <g transform="translate(110, 220)">
    <rect x="0" y="0" width="170" height="160" rx="12" fill="#1E293B" stroke="#334155" stroke-width="1.5"/>
    <g transform="translate(85, 55)" fill="none" stroke="#0EA5E9" stroke-width="2.5" stroke-linecap="round">
      <path d="M-12,-20 C-12,-24 -8,-27 -5,-27 C-2,-27 1,-24 1,-20 L1,-8 C1,-8 3,-9 6,-9 C9,-9 11,-6 11,-3 L11,0 C11,0 13,-1 16,-1 C19,-1 21,2 21,5 L21,12 C21,18 16,22 10,22 L2,22 C-2,22 -5,19 -7,15 L-10,9" fill="none"/>
      <path d="M-22,0 C-26,0 -27,-5 -24,-8" opacity="0.5"/>
      <path d="M-24,6 C-29,6 -30,-1 -27,-5" opacity="0.5"/>
    </g>
    <text x="85" y="120" text-anchor="middle" font-family="system-ui, -apple-system, sans-serif" font-size="14" font-weight="600" fill="#FFFFFF">Hand Tracking</text>
    <text x="85" y="140" text-anchor="middle" font-family="system-ui, -apple-system, sans-serif" font-size="11" fill="#94A3B8">Real-time detection</text>
  </g>
  <g transform="translate(310, 220)">
    <rect x="0" y="0" width="170" height="160" rx="12" fill="#1E293B" stroke="#334155" stroke-width="1.5"/>
    <g transform="translate(85, 55)" fill="none" stroke="#0EA5E9" stroke-width="2.5" stroke-linecap="round">
      <path d="M-15,-15 C-15,-20 -5,-22 0,-18 C5,-22 15,-20 15,-15 C15,-8 0,5 0,5 C0,5 -15,-8 -15,-15Z"/>
      <path d="M0,-10 L0,-2" stroke-width="2"/>
      <path d="M-5,-6 L5,-6" stroke-width="2"/>
    </g>
    <text x="85" y="120" text-anchor="middle" font-family="system-ui, -apple-system, sans-serif" font-size="14" font-weight="600" fill="#FFFFFF">Custom Gestures</text>
    <text x="85" y="140" text-anchor="middle" font-family="system-ui, -apple-system, sans-serif" font-size="11" fill="#94A3B8">Map your own</text>
  </g>
  <g transform="translate(510, 220)">
    <rect x="0" y="0" width="170" height="160" rx="12" fill="#1E293B" stroke="#334155" stroke-width="1.5"/>
    <g transform="translate(85, 55)" fill="none" stroke="#0EA5E9" stroke-width="2.5" stroke-linecap="round">
      <circle cx="0" cy="-8" r="10"/>
      <path d="M-16,12 C-16,2 -9,-4 0,-4 C9,-4 16,2 16,12"/>
      <circle cx="0" cy="-8" r="4" fill="#0EA5E9" opacity="0.3"/>
    </g>
    <text x="85" y="120" text-anchor="middle" font-family="system-ui, -apple-system, sans-serif" font-size="14" font-weight="600" fill="#FFFFFF">Smart Profiles</text>
    <text x="85" y="140" text-anchor="middle" font-family="system-ui, -apple-system, sans-serif" font-size="11" fill="#94A3B8">Site-specific rules</text>
  </g>
  <g transform="translate(710, 220)">
    <rect x="0" y="0" width="170" height="160" rx="12" fill="#1E293B" stroke="#334155" stroke-width="1.5"/>
    <g transform="translate(85, 55)" fill="none" stroke="#0EA5E9" stroke-width="2.5" stroke-linecap="round" stroke-linejoin="round">
      <path d="M0,-18 L14,-10 L14,4 C14,12 7,18 0,22 C-7,18 -14,12 -14,4 L-14,-10Z"/>
      <path d="M-5,2 L-2,6 L6,-4" stroke-width="2.5"/>
    </g>
    <text x="85" y="120" text-anchor="middle" font-family="system-ui, -apple-system, sans-serif" font-size="14" font-weight="600" fill="#FFFFFF">Privacy First</text>
    <text x="85" y="140" text-anchor="middle" font-family="system-ui, -apple-system, sans-serif" font-size="11" fill="#94A3B8">100% local processing</text>
  </g>
  <g transform="translate(110, 430)">
    <rect x="0" y="0" width="700" height="80" rx="12" fill="#1E293B" stroke="#334155" stroke-width="1" opacity="0.6"/>
    <g transform="translate(50, 40)">
      <circle cx="0" cy="0" r="6" fill="#10B981"/>
      <text x="14" y="5" font-family="system-ui, -apple-system, sans-serif" font-size="13" fill="#94A3B8">No cloud processing</text>
    </g>
    <g transform="translate(230, 40)">
      <circle cx="0" cy="0" r="6" fill="#0EA5E9"/>
      <text x="14" y="5" font-family="system-ui, -apple-system, sans-serif" font-size="13" fill="#94A3B8">Works offline</text>
    </g>
    <g transform="translate(400, 40)">
      <circle cx="0" cy="0" r="6" fill="#F97316"/>
      <text x="14" y="5" font-family="system-ui, -apple-system, sans-serif" font-size="13" fill="#94A3B8">13+ built-in gestures</text>
    </g>
    <g transform="translate(570, 40)">
      <circle cx="0" cy="0" r="6" fill="#10B981"/>
      <text x="14" y="5" font-family="system-ui, -apple-system, sans-serif" font-size="13" fill="#94A3B8">Free &amp; open source</text>
    </g>
  </g>
  <text x="460" y="570" text-anchor="middle" font-family="system-ui, -apple-system, sans-serif" font-size="16" fill="#94A3B8" letter-spacing="0.5">Control your browser with hand gestures</text>
  <rect x="0" y="672" width="920" height="8" fill="#0EA5E9" opacity="0.3"/>
</svg>