<svg xmlns="http://www.w3.org/2000/svg" viewBox="0 0 128 128" width="128" height="128">
  <rect width="128" height="128" rx="24" fill="#0F172A"/>
  <g fill="none" stroke="#0EA5E9" stroke-width="3" stroke-linecap="round" stroke-linejoin="round">
    <line x1="32" y1="56" x2="32" y2="20"/>
    <line x1="42" y1="56" x2="42" y2="12"/>
    <line x1="52" y1="56" x2="52" y2="16"/>
    <line x1="62" y1="56" x2="62" y2="24"/>
    <path d="M24 56v36c0 6 6 10 12 10h30c6 0 12-4 12-10V56"/>
    <line x1="24" y1="72" x2="12" y2="52"/>
    <path d="M84 34Q96 30 106 22"/>
    <path d="M86 50Q102 46 116 36"/>
    <path d="M84 66Q96 62 106 54"/>
  </g>
</svg>
