<svg xmlns="http://www.w3.org/2000/svg" viewBox="0 0 48 48" width="48" height="48">
  <rect width="48" height="48" rx="9" fill="#0F172A"/>
  <g fill="none" stroke="#0EA5E9" stroke-width="2" stroke-linecap="round" stroke-linejoin="round">
    <line x1="12" y1="21" x2="12" y2="8"/>
    <line x1="16" y1="21" x2="16" y2="5"/>
    <line x1="20" y1="21" x2="20" y2="6"/>
    <line x1="24" y1="21" x2="24" y2="9"/>
    <path d="M9 21v18c0 3 2 5 5 5h15c3 0 5-2 5-5V21"/>
    <line x1="9" y1="27" x2="5" y2="20"/>
    <path d="M33 14Q37 12 40 9"/>
    <path d="M34 19Q39 17 43 14"/>
    <path d="M33 25Q37 23 40 20"/>
  </g>
</svg>
