<svg xmlns="http://www.w3.org/2000/svg" viewBox="0 0 32 32" width="32" height="32">
  <rect width="32" height="32" rx="6" fill="#0F172A"/>
  <g fill="none" stroke="#0EA5E9" stroke-width="1.8" stroke-linecap="round" stroke-linejoin="round">
    <line x1="8" y1="14" x2="8" y2="5"/>
    <line x1="11" y1="14" x2="11" y2="3"/>
    <line x1="14" y1="14" x2="14" y2="4"/>
    <line x1="17" y1="14" x2="17" y2="6"/>
    <path d="M6 14v12c0 2 1.5 3 3 3h10c1.5 0 3-1 3-3V14"/>
    <line x1="6" y1="18" x2="3" y2="13"/>
    <path d="M22 9Q25 8 27 6"/>
    <path d="M23 13Q26 12 29 10"/>
    <path d="M22 17Q25 16 27 14"/>
  </g>
</svg>
